<?xml version="1.0" encoding="utf-8"?>
<!-- Generator: Adobe Illustrator 28.3.0, SVG Export Plug-In . SVG Version: 6.00 Build 0)  -->
<svg version="1.1" id="Layer_1" xmlns="http://www.w3.org/2000/svg" xmlns:xlink="http://www.w3.org/1999/xlink" x="0px" y="0px"
	 viewBox="0 0 2500 2500" style="enable-background:new 0 0 2500 2500;" xml:space="preserve">
<style type="text/css">
	.st0{display:none;fill:#E0B100;}
	.st1{display:none;fill:#FFC50D;}
	.st2{fill:#FFC50D;}
	.st3{fill-rule:evenodd;clip-rule:evenodd;fill:#FFC50D;}
	.st4{fill-rule:evenodd;clip-rule:evenodd;fill:#E0B100;}
	.st5{fill:#E0B100;}
</style>
<rect x="-171.14" y="323" class="st0" width="474.29" height="126.36"/>
<rect x="-359.71" y="500.9" class="st1" width="662.86" height="137.14"/>
<g>
	<g>
		<g>
			<path class="st2" d="M743.16,1402.78v-84.72h29.54c15.05,0,26.33,3.44,33.85,10.31c7.52,6.87,11.28,17.2,11.28,30.99
				c0,13.2-4.12,23.73-12.35,31.61c-8.23,7.88-19.18,11.82-32.85,11.82H743.16z M761.59,1333.12v54.65h9.63
				c8.47,0,15.1-2.51,19.91-7.53c4.81-5.02,7.21-11.91,7.21-20.65c0-8.27-2.36-14.75-7.09-19.44c-4.73-4.69-11.4-7.03-20.03-7.03
				H761.59z"/>
			<path class="st2" d="M866.29,1332.47c-3.15,0-5.72-0.95-7.71-2.87c-1.99-1.91-2.98-4.28-2.98-7.12c0-2.95,0.99-5.36,2.98-7.21
				c1.99-1.85,4.56-2.78,7.71-2.78c3.15,0,5.72,0.93,7.71,2.78c1.99,1.85,2.98,4.25,2.98,7.21c0,2.92-1,5.31-2.98,7.18
				C872.02,1331.54,869.45,1332.47,866.29,1332.47z M875.16,1402.78h-18.02v-61.98h18.02V1402.78z"/>
			<path class="st2" d="M978.8,1395.39c0,10.36-3.17,18.92-9.51,25.67c-6.34,6.75-15.58,10.13-27.71,10.13
				c-4.49,0-8.66-0.42-12.5-1.27c-3.84-0.85-7.69-2.16-11.55-3.93l5.44-12.29c3.15,1.42,6.18,2.45,9.1,3.1
				c2.91,0.65,6.2,0.97,9.87,0.97c6.06,0,10.71-1.78,13.94-5.35c3.23-3.57,4.84-8.3,4.84-14.21v-4.55h-0.24
				c-2.17,3.54-4.89,6.2-8.18,7.98c-3.29,1.77-7.06,2.66-11.31,2.66c-7.92,0-14.2-2.8-18.85-8.39c-4.65-5.59-6.97-13.04-6.97-22.33
				c0-10.48,2.59-18.82,7.77-25.02c5.18-6.2,11.98-9.31,20.41-9.31c3.82,0,7.17,0.74,10.04,2.22c2.87,1.48,5.24,3.71,7.09,6.71h0.24
				v-7.38h18.08V1395.39z M960.95,1373.24v-5.44c0-4.02-1.22-7.45-3.66-10.31c-2.44-2.86-5.59-4.28-9.45-4.28
				c-4.45,0-7.95,1.71-10.49,5.14c-2.54,3.43-3.81,8.27-3.81,14.53c0,5.4,1.21,9.66,3.63,12.79c2.42,3.13,5.72,4.7,9.9,4.7
				c4.17,0,7.53-1.58,10.07-4.73C959.68,1382.49,960.95,1378.36,960.95,1373.24z"/>
			<path class="st2" d="M1030.68,1332.47c-3.15,0-5.72-0.95-7.71-2.87c-1.99-1.91-2.98-4.28-2.98-7.12c0-2.95,0.99-5.36,2.98-7.21
				c1.99-1.85,4.56-2.78,7.71-2.78c3.15,0,5.72,0.93,7.71,2.78c1.99,1.85,2.98,4.25,2.98,7.21c0,2.92-1,5.31-2.98,7.18
				C1036.4,1331.54,1033.83,1332.47,1030.68,1332.47z M1039.54,1402.78h-18.02v-61.98h18.02V1402.78z"/>
			<path class="st2" d="M1121.09,1401.77c-1.89,0.83-3.99,1.45-6.29,1.86c-2.3,0.41-4.66,0.62-7.06,0.62
				c-6.62,0-11.61-1.61-14.98-4.84c-3.37-3.23-5.05-8.04-5.05-14.42v-30.84h-10.1v-13.35h10.1v-13.94l18.02-5.2v19.14h14.12v13.35
				h-14.12v29.6c0,2.52,0.49,4.35,1.48,5.5c0.98,1.14,2.5,1.71,4.55,1.71c1.06,0,2.07-0.13,3.01-0.38c0.95-0.26,1.85-0.6,2.72-1.03
				L1121.09,1401.77z"/>
			<path class="st2" d="M1208.36,1402.78h-17.19v-8.98h-0.24c-2.05,3.47-4.63,6.09-7.74,7.86c-3.11,1.77-6.64,2.66-10.58,2.66
				c-5.52,0-10.16-1.65-13.94-4.96s-5.67-7.88-5.67-13.71c0-5.79,1.88-10.48,5.64-14.06c3.76-3.58,9.6-5.91,17.52-6.97l15.18-2.07
				v-1.18c0-3.19-0.98-5.59-2.95-7.21c-1.97-1.61-4.69-2.42-8.15-2.42c-2.6,0-5.44,0.44-8.51,1.33c-3.07,0.89-6.17,2.29-9.28,4.22
				l-6.38-10.69c4.06-2.48,8.16-4.32,12.32-5.52c4.15-1.2,8.66-1.8,13.5-1.8c8.98,0,15.64,2.17,19.97,6.5
				c4.33,4.33,6.5,10.85,6.5,19.56V1402.78z M1191.35,1377.55v-4.37l-11.76,1.54c-3.31,0.43-5.77,1.39-7.39,2.87
				c-1.62,1.48-2.42,3.46-2.42,5.94c0,2.29,0.79,4.16,2.36,5.61c1.57,1.46,3.7,2.19,6.38,2.19c3.78,0,6.86-1.29,9.25-3.87
				C1190.15,1384.87,1191.35,1381.57,1191.35,1377.55z"/>
			<path class="st2" d="M1250.2,1402.78v-89.57h18.08v89.57H1250.2z"/>
			<path class="st2" d="M1365.32,1397.05l7.62-14.42c4.25,2.56,7.98,4.3,11.17,5.23c3.19,0.93,6.54,1.39,10.04,1.39
				c4.53,0,7.93-0.9,10.19-2.69c2.26-1.79,3.4-4.28,3.4-7.47c0-2.96-0.91-5.25-2.72-6.88c-1.81-1.63-5.1-3.02-9.87-4.17
				c-9.38-2.21-16.19-5.29-20.44-9.25c-4.25-3.96-6.38-9.46-6.38-16.51c0-7.13,2.75-13.18,8.24-18.17
				c5.5-4.98,13.21-7.47,23.13-7.47c4.14,0,8.2,0.47,12.2,1.42s7.83,2.34,11.49,4.19l-7.03,14.54c-3.23-1.81-6.29-3.12-9.19-3.93
				c-2.89-0.81-5.6-1.21-8.12-1.21c-3.9,0-6.94,0.78-9.13,2.33c-2.19,1.56-3.28,3.79-3.28,6.71c0,2.64,0.99,4.67,2.98,6.09
				c1.99,1.42,5.56,2.76,10.72,4.02c9.1,2.13,15.68,5.25,19.73,9.36c4.06,4.12,6.08,9.9,6.08,17.34c0,7.96-2.8,14.41-8.39,19.35
				c-5.59,4.94-13.69,7.41-24.28,7.41c-4.77,0-9.66-0.63-14.68-1.89C1373.79,1401.1,1369.29,1399.33,1365.32,1397.05z"/>
			<path class="st2" d="M1525.73,1402.78h-21.86l-20.68-30.66h-0.24v30.66h-18.08v-89.57h18.08v56.19h0.24l19.32-28.6h21.57
				l-22.92,29.19L1525.73,1402.78z"/>
			<path class="st2" d="M1568.99,1332.47c-3.15,0-5.72-0.95-7.71-2.87c-1.99-1.91-2.98-4.28-2.98-7.12c0-2.95,0.99-5.36,2.98-7.21
				c1.99-1.85,4.56-2.78,7.71-2.78s5.72,0.93,7.71,2.78c1.99,1.85,2.98,4.25,2.98,7.21c0,2.92-1,5.31-2.98,7.18
				C1574.71,1331.54,1572.14,1332.47,1568.99,1332.47z M1577.85,1402.78h-18.02v-61.98h18.02V1402.78z"/>
			<path class="st2" d="M1676.59,1376.84h-40.83c0.31,4.77,1.87,8.34,4.67,10.72c2.8,2.38,6.66,3.58,11.58,3.58
				c1.81,0,4.28-0.52,7.42-1.57c3.13-1.04,6.19-2.69,9.19-4.93l7.86,10.52c-4.21,3.15-8.51,5.46-12.88,6.94
				c-4.37,1.48-9.2,2.22-14.48,2.22c-9.89,0-17.57-2.78-23.04-8.33c-5.48-5.55-8.21-13.31-8.21-23.28c0-9.93,2.89-17.98,8.69-24.17
				c5.79-6.18,13.12-9.28,21.98-9.28c8.59,0,15.41,2.6,20.47,7.8c5.06,5.2,7.59,12.68,7.59,22.45V1376.84z M1659.81,1365.5
				c0-4.88-0.97-8.42-2.9-10.6c-1.93-2.19-4.77-3.28-8.51-3.28c-3.27,0-6.08,1.25-8.42,3.75c-2.34,2.5-3.77,5.88-4.28,10.13H1659.81
				z"/>
			<path class="st2" d="M1708.92,1397.58l7.5-12.11c2.13,1.62,4.6,2.98,7.42,4.11c2.82,1.12,5.98,1.68,9.48,1.68
				c2.64,0,4.79-0.48,6.47-1.45c1.67-0.96,2.51-2.43,2.51-4.4c0-1.58-0.65-2.83-1.95-3.75c-1.3-0.92-3.7-1.78-7.21-2.57
				c-7.68-1.65-13.2-3.97-16.54-6.94c-3.35-2.97-5.02-7.12-5.02-12.44c0-6.22,2.47-11.19,7.41-14.89c4.94-3.7,11.02-5.55,18.23-5.55
				c3.7,0,7.22,0.48,10.55,1.45c3.33,0.97,6.45,2.39,9.36,4.28l-6.79,11.7c-2.52-1.58-4.88-2.73-7.06-3.46
				c-2.19-0.73-4.44-1.09-6.77-1.09c-2.68,0-4.83,0.51-6.44,1.54c-1.62,1.03-2.42,2.34-2.42,3.96c0,1.77,0.74,3.08,2.21,3.93
				c1.48,0.85,4.3,1.7,8.48,2.57c7.13,1.5,12.26,3.77,15.39,6.82c3.13,3.05,4.7,7.22,4.7,12.5c0,6.26-2.36,11.29-7.09,15.1
				c-4.73,3.8-10.97,5.7-18.73,5.7c-4.29,0-8.37-0.54-12.23-1.62C1716.52,1401.55,1712.7,1399.86,1708.92,1397.58z"/>
		</g>
	</g>
	<g>
		<path class="st3" d="M523.45,796.05c24.24,5.55,24.24,5.55,24.24,5.55l25.99-18.4l-5.33-1.47c-3.05-0.74-4.84-3.94-4.04-6.99l0,0
			c0.82-3.05,3.96-4.85,7.02-4.05l14.43,3.9l19.54-13.88l-5.69-1.49c-2.98-0.83-4.85-3.98-4.06-6.97l0,0
			c0.83-3.07,3.98-4.9,7.03-4.07l14.8,3.98l22.93-16.29c0,0,4.79-4.96,20.71,2.79l-56.65,66.68l59.45,31.73l36.39-25.92
			c0,0,2.35-2.5,8.8-0.58l-25.44,42.88l2.55-4.3c17.86,4.37,37.86,10.31,58.98,18.37c37.73,14.4,79.04,35.59,118.11,66.76
			c57.29,45.68,109.79,112.77,139.25,211.32c9.34,31.26,16.37,65.68,20.49,103.59c-22.5,4.58-46.9,7.39-73.2,8.43
			c-7.58,0.3-15.31,0.45-23.21,0.46c-0.16,0-0.32,0-0.48,0H745.1V916.01c47.31,29.13,87.37,67.56,118.11,116.32v121.25h50.68h23.94
			c-11.28-48.38-32.99-107.12-74.62-161.8c-28.8-37.8-67.12-73.65-118.11-102.76c-18.73-10.69-39.16-20.47-61.46-29.1l0.53,43.32
			c-6.52-1.52-7.33-4.9-7.33-4.9l-18.57-40.66l-67.3-2.17l15.64,86.05c-17.6-1.33-19.23-7.93-19.23-7.93l-11.73-25.62l-14.84-3.95
			c-3.01-0.81-4.89-3.97-4.04-7.04l0,0c0.82-3.02,3.94-4.81,6.99-3.98l5.69,1.5l-9.96-21.75l-14.49-3.88
			c-3.07-0.81-4.87-3.98-4.06-7.02l0,0c0.84-3.05,3.99-4.83,7.03-4.05l5.3,1.45l-13.28-28.9c0,0,0,0-23.76-7.34
			C475.07,810.36,481.46,786.4,523.45,796.05L523.45,796.05z"/>
		<path class="st4" d="M1037.17,1137.86c10.22,33.94,17.23,69.41,21.4,105.93c43.19-11.85,78.41-31.07,105.69-57.65
			c49.22-47.95,73.83-113.07,73.83-195.35c0-82.29-25.24-146.53-75.72-192.72c-50.48-46.19-122.92-69.28-217.31-69.28H758.03v114.22
			c29.32,10.76,57.03,23.66,80.22,37.24c13.3,7.8,25.93,16.07,37.9,24.8v-73.29h65.88c60.07,0,104.62,14.01,133.64,42.03
			c29.03,28.01,43.54,68.02,43.54,120.02c0,51.99-14.51,91.63-43.54,118.88C1064.64,1123.05,1051.81,1131.44,1037.17,1137.86
			L1037.17,1137.86z"/>
	</g>
	<g>
		<path class="st5" d="M1409.54,1102.72c12.79,51.67,53.24,74.32,118.22,74.32c64.81,0,92.52-23.45,92.52-61.12
			c0-41.88-27.07-60.05-123.08-80.52c-152.77-32.87-190.55-83.81-190.55-153.27c0-89.68,73.19-150.59,206.09-150.59
			c149.06,0,208.44,73.44,216.48,148.71h-122.3c-5.86-31.67-24.97-66.06-97.34-66.06c-49.27,0-79,18.65-79,55.18
			c0,35.78,23.83,50.29,114.54,69.58c163.28,35.25,199.08,90.93,199.08,163.47c0,93.95-77.56,158.41-225.97,158.41
			c-142.5,0-217.55-64.3-231-158.11H1409.54z"/>
	</g>
</g>
</svg>
